<?xml version="1.0" encoding="UTF-8"?>
<svg width="100pt" height="100pt" version="1.1" viewBox="0 0 100 100" xmlns="http://www.w3.org/2000/svg">
 <g fill="#b2d6c0">
  <path d="m96.852 99.809h-93.832c-1.1016 0-2-0.89844-2-2v-60.168c0-0.62891 0.28906-1.2188 0.78906-1.6016l46.98-35.52c0.71875-0.53906 1.7109-0.53906 2.4219 0l46.98 36.051c0.48828 0.37891 0.78125 0.96875 0.78125 1.5898l-0.12891 59.648c0 1.1016-0.89844 2-2 2zm-91.832-4h89.832l0.12891-56.672-44.992-34.508-44.969 34.012v57.172z"/>
  <path d="m76.84 99.809h-26.84c-1.1016 0-2-0.89844-2-2v-45.098c0-1.1016 0.89844-2 2-2h26.84c1.1016 0 2 0.89844 2 2v45.102c0 1.1016-0.89844 2-2 2zm-24.84-4h22.84v-41.098h-22.84v41.102z"/>
  <path d="m34.859 71.891h-14.32c-1.1016 0-2-0.89844-2-2v-17.18c0-1.1016 0.89844-2 2-2h14.32c1.1016 0 2 0.89844 2 2v17.18c0 1.1016-0.89844 2-2 2zm-12.32-4h10.32v-13.18h-10.32z"/>
  <path d="m87.602 32.949c-1.1016 0-2-0.89844-2-2v-19.578h-9.0312v9.2383c0 1.1016-0.89844 2-2 2-1.1016 0-2-0.89844-2-2v-11.238c0-1.1016 0.89844-2 2-2h13.031c1.1016 0 2 0.89844 2 2v21.578c0 1.1016-0.89844 2-2 2z"/>
 </g>
</svg>
