<?xml version="1.0" encoding="UTF-8"?>
<svg width="100pt" height="100pt" version="1.1" viewBox="0 0 100 100" xmlns="http://www.w3.org/2000/svg">
 <g fill="#b2d6c0">
  <path d="m25.109 66.703c-0.86328 0-1.5625-0.69922-1.5625-1.5625v-45.234h-10.672c-2.9062 0-5.2656 2.3594-5.2656 5.2656v39.969c0 0.86328-0.69922 1.5625-1.5625 1.5625s-1.5625-0.69922-1.5625-1.5625v-39.969c0-4.6328 3.7578-8.3906 8.3906-8.3906h12.234c0.41406 0 0.8125 0.16406 1.1055 0.45703 0.29297 0.29297 0.45703 0.69141 0.45703 1.1055v46.797c0 0.41406-0.16406 0.8125-0.45703 1.1055-0.29297 0.29297-0.69141 0.45703-1.1055 0.45703z"/>
  <path d="m6.0469 66.703c-0.86328 0-1.5625-0.69922-1.5625-1.5625v-31.25c0-0.86328 0.69922-1.5625 1.5625-1.5625s1.5625 0.69922 1.5625 1.5625v31.25c0 0.41406-0.16406 0.8125-0.45703 1.1055-0.29297 0.29297-0.69141 0.45703-1.1055 0.45703z"/>
  <path d="m62.266 75.375h-47.562c-5.6523 0-10.234-4.582-10.234-10.234s4.582-10.234 10.234-10.234h1.7344c5.6562 0.007812 10.234 4.5938 10.234 10.25 0 0.86328-0.69922 1.5625-1.5625 1.5625s-1.5625-0.69922-1.5625-1.5625c0-3.9297-3.1797-7.1172-7.1094-7.125h-1.7344c-3.9258 0-7.1094 3.1836-7.1094 7.1094s3.1836 7.1094 7.1094 7.1094h47.562c0.86328 0 1.5625 0.69922 1.5625 1.5625s-0.69922 1.5625-1.5625 1.5625z"/>
  <path d="m84.062 57.047c-0.86328 0-1.5625-0.69922-1.5625-1.5625v-26.922h-2.5469c-0.86328 0-1.5625-0.69922-1.5625-1.5625s0.69922-1.5625 1.5625-1.5625h4.1094c0.41406 0 0.8125 0.16406 1.1055 0.45703s0.45703 0.69141 0.45703 1.1055v28.484c0 0.41406-0.16406 0.8125-0.45703 1.1055-0.29297 0.29297-0.69141 0.45703-1.1055 0.45703z"/>
  <path d="m70.938 28.562h-45.812c-0.86328 0-1.5625-0.69922-1.5625-1.5625s0.69922-1.5625 1.5625-1.5625h45.812c0.86328 0 1.5625 0.69922 1.5625 1.5625s-0.69922 1.5625-1.5625 1.5625z"/>
  <path d="m77.75 90.625h-6.4688c-0.86328 0-1.5625-0.69922-1.5625-1.5625v-5.75c-0.50781-0.17578-1-0.37891-1.4844-0.60938l-4.0781 4.0625c-0.60938 0.60547-1.5938 0.60547-2.2031 0l-4.5781-4.5938c-0.60547-0.60938-0.60547-1.5938 0-2.2031l4.0625-4.0625c-0.23438-0.48438-0.44141-0.98047-0.625-1.4844h-5.75c-0.86328 0-1.5625-0.69922-1.5625-1.5625v-6.4844c0-0.86328 0.69922-1.5625 1.5625-1.5625h5.75c0.17969-0.53125 0.39062-1.0547 0.625-1.5625l-4.0625-4.0625c-0.29688-0.29297-0.46875-0.69141-0.46875-1.1094s0.17188-0.81641 0.46875-1.1094l4.5781-4.5781c0.60938-0.60547 1.5938-0.60547 2.2031 0l4.0781 4.0781c0.48438-0.23828 0.97656-0.44531 1.4844-0.625v-5.6719c0-0.86328 0.69922-1.5625 1.5625-1.5625h6.4688c0.41406 0 0.8125 0.16406 1.1055 0.45703 0.29297 0.29297 0.45703 0.69141 0.45703 1.1055v5.7344c0.53125 0.17969 1.0547 0.39062 1.5625 0.625l4.0625-4.0781c0.29297-0.29688 0.69141-0.46094 1.1094-0.46094s0.81641 0.16406 1.1094 0.46094l4.5781 4.5781c0.29297 0.29297 0.45703 0.69531 0.45312 1.1094 0.003906 0.41406-0.16016 0.81641-0.45312 1.1094l-4.0625 4.0781c0.23047 0.48438 0.43359 0.97656 0.60938 1.4844h5.7344c0.41406 0 0.8125 0.16406 1.1055 0.45703 0.29297 0.29297 0.45703 0.69141 0.45703 1.1055v6.4844c0 0.41406-0.16406 0.8125-0.45703 1.1055-0.29297 0.29297-0.69141 0.45703-1.1055 0.45703h-5.7969c-0.1875 0.5-0.39062 1-0.60938 1.4688l4.0625 4.0781c0.60547 0.60938 0.60547 1.5938 0 2.2031l-4.5781 4.5938c-0.29297 0.29688-0.69141 0.46094-1.1094 0.46094s-0.81641-0.16406-1.1094-0.46094l-4.0625-4.0781c-0.50781 0.24219-1.0273 0.45312-1.5625 0.625v5.75c0 0.83984-0.66016 1.5273-1.5 1.5625zm-4.9062-3.125h3.3438v-5.3438c-0.019531-0.73438 0.47266-1.3867 1.1875-1.5625 1.0273-0.26172 2.0117-0.67188 2.9219-1.2188 0.61328-0.36719 1.3984-0.26953 1.9062 0.23438l3.7344 3.8438 2.375-2.3906-3.7812-3.7812c-0.47266-0.52344-0.53516-1.2969-0.15625-1.8906 0.53125-0.92188 0.94141-1.9102 1.2188-2.9375 0.1875-0.70312 0.83594-1.1797 1.5625-1.1562h5.3281v-3.3594h-5.4219c-0.72656 0.023438-1.375-0.45312-1.5625-1.1562-0.28125-1.0391-0.69531-2.0352-1.2344-2.9688-0.35547-0.61328-0.25391-1.3906 0.25-1.8906l3.7812-3.7812-2.3594-2.375-3.7812 3.7812c-0.5 0.50391-1.2773 0.60547-1.8906 0.25-0.92969-0.53906-1.9297-0.94922-2.9688-1.2188-0.70312-0.1875-1.1797-0.83594-1.1562-1.5625v-5.2812h-3.2969v5.3281c0.023438 0.72656-0.45312 1.375-1.1562 1.5625-1.0312 0.26953-2.0234 0.6875-2.9375 1.2344-0.61719 0.36328-1.4023 0.26172-1.9062-0.25l-3.7812-3.7812-2.375 2.375 3.7812 3.7812c0.51172 0.50781 0.60938 1.3047 0.23438 1.9219-0.55078 0.90625-0.96094 1.8906-1.2188 2.9219-0.18359 0.70703-0.83203 1.1953-1.5625 1.1719h-5.2969v3.3594h5.3594c0.73047-0.023437 1.3789 0.46484 1.5625 1.1719 0.26562 1.0234 0.67578 2 1.2188 2.9062 0.36719 0.61328 0.26953 1.3984-0.23438 1.9062l-3.7812 3.7812 2.375 2.3906 3.7188-3.8281c0.50391-0.51172 1.2891-0.61328 1.9062-0.25 0.90625 0.53906 1.8867 0.94141 2.9062 1.2031 0.70703 0.18359 1.1953 0.83203 1.1719 1.5625z"/>
  <path d="m74.516 77.547c-3.2109 0.007813-6.1094-1.9219-7.3438-4.8906-1.2344-2.9648-0.55859-6.3789 1.7109-8.6523 2.2695-2.2734 5.6836-2.957 8.6523-1.7305 2.9648 1.2305 4.9023 4.125 4.9023 7.3359-0.007812 4.375-3.5469 7.9219-7.9219 7.9375zm0-12.734c-1.9492-0.007812-3.7109 1.1641-4.457 2.9648-0.75 1.7969-0.33984 3.8711 1.0391 5.25s3.4531 1.7891 5.25 1.0391c1.8008-0.74609 2.9727-2.5078 2.9648-4.457-0.007812-2.6445-2.1523-4.7891-4.7969-4.7969z"/>
  <path d="m74.812 33.703c-0.41406-0.007813-0.80469-0.17578-1.0938-0.46875l-4.5156-4.5c-0.29297-0.29297-0.45703-0.69531-0.45312-1.1094 0-0.41016 0.16406-0.80078 0.45312-1.0938l13.328-13.328c0.60938-0.60547 1.5938-0.60547 2.2031 0l4.5 4.5156c0.60547 0.60938 0.60547 1.5938 0 2.2031l-13.312 13.312c-0.29297 0.29688-0.69141 0.46875-1.1094 0.46875zm-2.2812-6.0781 2.2812 2.2969 11.125-11.172-2.2969-2.2812z"/>
  <path d="m68.062 35.938c-0.41797 0-0.81641-0.17188-1.1094-0.46875-0.40234-0.41016-0.54688-1.0117-0.375-1.5625l2.25-6.75c0.17578-0.51172 0.60156-0.89844 1.1328-1.0195 0.52734-0.12109 1.082 0.039062 1.4609 0.42578l4.5 4.5c0.38672 0.38281 0.54688 0.9375 0.42188 1.4688-0.12891 0.52344-0.51953 0.94141-1.0312 1.1094l-6.75 2.2969c-0.16406 0.023438-0.33594 0.023438-0.5 0zm2.9375-5.4375-0.46875 1.4062 1.3906-0.46875z"/>
  <path d="m88.141 20.312c-0.41406 0.003906-0.81641-0.16016-1.1094-0.45312l-4.5-4.4375c-0.29688-0.29297-0.46875-0.69141-0.46875-1.1094s0.17188-0.81641 0.46875-1.1094l3.4062-3.375c0.60938-0.60547 1.5938-0.60547 2.2031 0l4.5 4.5c0.29688 0.29297 0.46875 0.69141 0.46875 1.1094s-0.17188 0.81641-0.46875 1.1094l-3.375 3.375c-0.30859 0.27344-0.71484 0.41406-1.125 0.39062zm-2.2969-6 2.2969 2.2969 1.1562-1.1719-2.2812-2.2969z"/>
  <path d="m56.375 36.5h-25.469c-0.86328 0-1.5625-0.69922-1.5625-1.5625s0.69922-1.5625 1.5625-1.5625h25.469c0.86328 0 1.5625 0.69922 1.5625 1.5625s-0.69922 1.5625-1.5625 1.5625z"/>
  <path d="m62.734 44.453h-31.828c-0.86328 0-1.5625-0.69922-1.5625-1.5625s0.69922-1.5625 1.5625-1.5625h31.828c0.86328 0 1.5625 0.69922 1.5625 1.5625s-0.69922 1.5625-1.5625 1.5625z"/>
  <path d="m46.875 52.422h-15.969c-0.86328 0-1.5625-0.69922-1.5625-1.5625s0.69922-1.5625 1.5625-1.5625h15.969c0.86328 0 1.5625 0.69922 1.5625 1.5625s-0.69922 1.5625-1.5625 1.5625z"/>
  <path d="m46.578 66.781c0-0.86328 0.69922-1.5625 1.5625-1.5625 0.41406 0 0.8125 0.16406 1.1055 0.45703 0.29297 0.29297 0.45703 0.69141 0.45703 1.1055s-0.16406 0.8125-0.45703 1.1055c-0.29297 0.29297-0.69141 0.45703-1.1055 0.45703-0.86328 0-1.5625-0.69922-1.5625-1.5625zm-4.6875 0c0-0.86328 0.69922-1.5625 1.5625-1.5625 0.41406 0 0.8125 0.16406 1.1055 0.45703 0.29297 0.29297 0.45703 0.69141 0.45703 1.1055s-0.16406 0.8125-0.45703 1.1055c-0.29297 0.29297-0.69141 0.45703-1.1055 0.45703-0.86328 0-1.5625-0.69922-1.5625-1.5625zm-4.6875 0c0-0.86328 0.69922-1.5625 1.5625-1.5625 0.41406 0 0.8125 0.16406 1.1055 0.45703 0.29297 0.29297 0.45703 0.69141 0.45703 1.1055s-0.16406 0.8125-0.45703 1.1055c-0.29297 0.29297-0.69141 0.45703-1.1055 0.45703-0.86328 0-1.5625-0.69922-1.5625-1.5625zm-4.6875 0c0-0.86328 0.69922-1.5625 1.5625-1.5625 0.41406 0 0.8125 0.16406 1.1055 0.45703 0.29297 0.29297 0.45703 0.69141 0.45703 1.1055s-0.16406 0.8125-0.45703 1.1055c-0.29297 0.29297-0.69141 0.45703-1.1055 0.45703-0.86328 0-1.5625-0.69922-1.5625-1.5625z"/>
 </g>
</svg>
