<?xml version="1.0" encoding="UTF-8"?>
<svg width="100pt" height="100pt" version="1.1" viewBox="0 0 100 100" xmlns="http://www.w3.org/2000/svg">
 <g fill="#b2d6c0">
  <path d="m36.152 7.7734h-26.227c-0.73047 0-1.3359 0.58984-1.3359 1.3164v26.227c0 0.72656 0.58984 1.332 1.332 1.332h26.227c0.72656 0 1.332-0.58984 1.332-1.332l0.003906-26.227c0-0.72656-0.60547-1.3164-1.332-1.3164zm-20.789 26.227c0.03125-4.1953 3.4531-7.6055 7.668-7.6055h0.015625c4.2109 0 7.6367 3.4102 7.668 7.6055zm4.3789-13.562c0-1.8164 1.4688-3.2891 3.2891-3.2891 1.8164 0 3.2891 1.4688 3.2891 3.2891 0 1.8047-1.4688 3.2734-3.2734 3.2891h-0.015625-0.015625c-1.8047 0-3.2734-1.4688-3.2734-3.2891zm15.09 13.562h-1.4688c-0.015625-4.168-2.5312-7.7578-6.1055-9.3633 1.0742-1.0742 1.7422-2.5625 1.7422-4.1836 0-3.2734-2.668-5.9375-5.9375-5.9375-3.2734 0-5.9375 2.668-5.9375 5.9375 0 1.6367 0.66797 3.1211 1.7422 4.1953-3.5742 1.6055-6.0898 5.1953-6.1055 9.3633l-1.5195 0.003906v-23.59h23.574v23.574z"/>
  <path d="m15.711 41.742c-3.832 0-6.9375 3.1211-6.9375 6.9375 0 3.8164 3.1211 6.9375 6.9375 6.9375 3.8164 0 6.9375-3.1211 6.9375-6.9375 0.003906-3.8164-3.1172-6.9375-6.9375-6.9375zm0 11.242c-2.3633 0-4.2891-1.9258-4.2891-4.2891 0-2.3633 1.9258-4.2891 4.2891-4.2891 2.3633 0 4.2891 1.9258 4.2891 4.2891 0 2.3672-1.9258 4.2891-4.2891 4.2891z"/>
  <path d="m15.711 60.047c-3.832 0-6.9375 3.1211-6.9375 6.9375s3.1211 6.9375 6.9375 6.9375c3.8164 0 6.9375-3.1211 6.9375-6.9375 0.003906-3.8164-3.1172-6.9375-6.9375-6.9375zm0 11.242c-2.3633 0-4.2891-1.9258-4.2891-4.2891s1.9258-4.2891 4.2891-4.2891c2.3633 0 4.2891 1.9258 4.2891 4.2891s-1.9258 4.2891-4.2891 4.2891z"/>
  <path d="m15.711 78.348c-3.832 0-6.9375 3.1211-6.9375 6.9375s3.1211 6.9375 6.9375 6.9375c3.8164 0 6.9375-3.1211 6.9375-6.9375 0.003906-3.8164-3.1172-6.9375-6.9375-6.9375zm0 11.242c-2.3633 0-4.2891-1.9258-4.2891-4.2891s1.9258-4.2891 4.2891-4.2891c2.3633 0 4.2891 1.9258 4.2891 4.2891 0 2.3672-1.9258 4.2891-4.2891 4.2891z"/>
  <path d="m34.195 44.453h-8.0312c-0.72656 0-1.332 0.58984-1.332 1.332 0 0.74219 0.58984 1.332 1.332 1.332h8.0312c0.72656 0 1.332-0.58984 1.332-1.332 0.003906-0.73828-0.60156-1.332-1.332-1.332z"/>
  <path d="m26.168 52.926h4.5625c0.72656 0 1.332-0.58984 1.332-1.332s-0.58984-1.332-1.332-1.332h-4.5625c-0.72656 0-1.332 0.58984-1.332 1.332-0.003907 0.73828 0.60156 1.332 1.332 1.332z"/>
  <path d="m34.195 62.758h-8.0312c-0.72656 0-1.332 0.58984-1.332 1.332 0 0.74219 0.58984 1.332 1.332 1.332h8.0312c0.72656 0 1.332-0.58984 1.332-1.332 0.003906-0.74219-0.60156-1.332-1.332-1.332z"/>
  <path d="m26.168 71.227h4.5625c0.72656 0 1.332-0.58984 1.332-1.332 0-0.74219-0.58984-1.332-1.332-1.332h-4.5625c-0.72656 0-1.332 0.58984-1.332 1.332-0.003907 0.74219 0.60156 1.332 1.332 1.332z"/>
  <path d="m34.195 81.047h-8.0312c-0.72656 0-1.332 0.58984-1.332 1.332 0 0.74219 0.58984 1.332 1.332 1.332h8.0312c0.72656 0 1.332-0.58984 1.332-1.332 0.003906-0.74219-0.60156-1.332-1.332-1.332z"/>
  <path d="m30.727 86.879h-4.5625c-0.72656 0-1.332 0.58984-1.332 1.332 0 0.74219 0.58984 1.332 1.332 1.332h4.5625c0.72656 0 1.332-0.58984 1.332-1.332 0.003906-0.74219-0.60547-1.332-1.332-1.332z"/>
  <path d="m39.211 44.031c-0.72656 0-1.332 0.58984-1.332 1.332v38.727c0 0.72656 0.58984 1.332 1.332 1.332 0.74219 0 1.332-0.58984 1.332-1.332l0.003906-38.742c-0.015625-0.72656-0.60938-1.3164-1.3359-1.3164z"/>
  <path d="m51.09 34.562-0.91016 5.3164c-0.089844 0.5 0.12109 1 0.53125 1.3047 0.41016 0.30469 0.95312 0.33203 1.3945 0.10547l4.7734-2.5156 4.7734 2.5156c0.19531 0.10547 0.41016 0.15234 0.62109 0.15234 0.27344 0 0.54687-0.089844 0.77344-0.25781 0.41016-0.30469 0.60547-0.80469 0.53125-1.3047l-0.91016-5.3047 3.8633-3.7578c0.36328-0.34766 0.5-0.87891 0.33203-1.3633-0.15234-0.48438-0.57422-0.83203-1.0742-0.91016l-5.332-0.77344-2.3789-4.832c-0.22656-0.45312-0.68359-0.74219-1.1953-0.74219-0.51562 0-0.96875 0.28906-1.1836 0.74219l-2.3945 4.832-5.332 0.77344c-0.5 0.074219-0.91016 0.42578-1.0742 0.91016-0.15234 0.48438-0.03125 1.0156 0.33203 1.3633zm3.2891-4.2734c0.4375-0.0625 0.80469-0.33203 1-0.72656l1.5-3.0469 1.5 3.0469c0.19531 0.39453 0.5625 0.66797 1 0.72656l3.3633 0.48438-2.4375 2.3789c-0.31641 0.30469-0.45313 0.74219-0.37891 1.1836l0.57422 3.3477-3.0156-1.5742c-0.39453-0.19531-0.84766-0.19531-1.2266 0l-3.0156 1.5742 0.57422-3.3477c0.074219-0.42578-0.0625-0.86328-0.37891-1.168l-2.4375-2.3789z"/>
  <path d="m61.652 62.305c0.19531 0.10547 0.41016 0.15234 0.62109 0.15234 0.27344 0 0.54687-0.089843 0.77344-0.25781 0.41016-0.30469 0.60547-0.80469 0.53125-1.3047l-0.91016-5.3047 3.8633-3.7578c0.36328-0.34766 0.5-0.87891 0.33203-1.3633-0.15234-0.48438-0.57422-0.83203-1.0742-0.91016l-5.3359-0.76953-2.3789-4.832c-0.22656-0.45312-0.68359-0.74219-1.1953-0.74219-0.51562 0-0.96875 0.28906-1.1836 0.74219l-2.3945 4.832-5.332 0.77344c-0.5 0.074219-0.91016 0.42578-1.0742 0.91016-0.15234 0.48438-0.03125 1 0.33203 1.3633l3.8633 3.7578-0.91016 5.3164c-0.089844 0.5 0.12109 1 0.53125 1.3047 0.41016 0.30469 0.95312 0.33203 1.3945 0.10547l4.7734-2.5156zm-8.3945-3.6094 0.57422-3.3477c0.074219-0.42578-0.0625-0.86328-0.37891-1.168l-2.4375-2.3789 3.3633-0.48438c0.4375-0.0625 0.80469-0.33203 1-0.72656l1.5-3.0469 1.5 3.0469c0.19531 0.39453 0.5625 0.66797 1 0.72656l3.3633 0.48438-2.4375 2.3789c-0.31641 0.30469-0.45313 0.74219-0.37891 1.1836l0.57422 3.3477-3.0156-1.5742c-0.39453-0.19531-0.84766-0.19531-1.2266 0z"/>
  <path d="m92.879 66.789h-8.3047v-3.3164c0-1.5625-1.2734-2.8477-2.8477-2.8477h-5.8633v-40.457c0-0.34766-0.13672-0.69531-0.39453-0.9375l-17.105-17.141c-0.24219-0.24219-0.58984-0.39453-0.9375-0.39453h-47.5c-4.0781 0.015626-7.3945 3.3203-7.3945 7.3945v81.816c0 4.0742 3.3164 7.3945 7.3945 7.3945l82.953 0.003907c2.5312 0 4.5898-2.0625 4.5898-4.5898v-22.336c0-2.5312-2.0586-4.5898-4.5898-4.5898zm1.9375 4.5898v5.4844l-5.7422 5.7422h-8.4102v-2.4102c0-0.72656-0.58984-1.332-1.332-1.332h-7.4531c-0.72656 0-1.332 0.58984-1.332 1.332v2.4102h-8.4102l-5.7422-5.7422v-5.4844c0-1.0625 0.86328-1.9375 1.9375-1.9375h34.547c1.0586-0.003906 1.9375 0.875 1.9375 1.9375zm-16.801 10.137v4.8047h-4.8047v-4.8047zm3.9102-18.047v3.3164h-12.637v-3.3164c0-0.10547 0.089844-0.19531 0.19531-0.19531h12.258c0.10547 0.015624 0.18359 0.089843 0.18359 0.19531zm-23.184-57.242 12.605 12.605h-7.8633c-2.6055 0-4.7422-2.1211-4.7422-4.7422zm-53.559 84.684v-81.82c0-2.6055 2.1211-4.7422 4.7422-4.7422h46.168v9.7422c0 4.0742 3.3164 7.3945 7.3945 7.3945h9.7422v39.152h-3.7422c-1.5625 0-2.8477 1.2734-2.8477 2.8477v3.3164l-8.3086 0.003907c-2.5312 0-4.5898 2.0625-4.5898 4.5898v22.332c0 0.69531 0.16797 1.3477 0.4375 1.9375l-44.254 0.003907c-2.6094-0.015625-4.7422-2.1523-4.7422-4.7578zm87.695 4.7422h-34.547c-1.0625 0-1.9375-0.86328-1.9375-1.9375v-13.109l4.2578 4.2578c0.24219 0.24219 0.58984 0.39453 0.9375 0.39453h8.9531v2.4102c0 0.72656 0.58984 1.332 1.332 1.332h7.4531c0.72656 0 1.332-0.58984 1.332-1.332v-2.4102h8.9531c0.34766 0 0.68359-0.13672 0.9375-0.39453l4.2578-4.2578v13.105c0.007812 1.0625-0.87109 1.9414-1.9297 1.9414z"/>
 </g>
</svg>
