<?xml version="1.0" encoding="UTF-8"?>
<svg width="100pt" height="100pt" version="1.1" viewBox="0 0 100 100" xmlns="http://www.w3.org/2000/svg">
 <path d="m82.508 78.855c-1.5273-13.996-13.68-22.352-32.504-22.352-18.137 0-29.879 7.4375-32.223 20.414-0.32812 1.8516-0.44531 7.1992-0.44531 8.3984 0 1.3828 1.1172 2.5 2.5 2.5h60.328c0.66797 0 1.3086-0.26953 1.7773-0.74219 0.46875-0.47656 0.73047-1.1211 0.72266-1.7891-0.070312-5.6562-0.13672-6.2383-0.15625-6.4297zm-60.121 3.957c0.0625-1.9688 0.17969-4.2383 0.31641-5.0156 2.5625-14.18 18.203-16.297 27.301-16.297 7.6914 0 25.77 1.7422 27.531 17.887 0.023438 0.25 0.058594 1.3867 0.09375 3.4297h-55.242zm27.617-31.859c10.027 0 18.188-9.7812 18.188-21.809 0-11.418-7.4805-19.395-18.188-19.395-10.711 0-18.188 7.9766-18.188 19.395 0 12.027 8.1602 21.809 18.188 21.809zm0-36.199c7.8906 0 13.188 5.7852 13.188 14.395 0 9.2695-5.9141 16.809-13.188 16.809-7.2734 0-13.188-7.5391-13.188-16.809 0-8.6094 5.2969-14.395 13.188-14.395z" fill="#b2d6c0"/>
</svg>
